<?xml version="1.0" standalone="no"?><!DOCTYPE svg PUBLIC "-//W3C//DTD SVG 1.1//EN" "http://www.w3.org/Graphics/SVG/1.1/DTD/svg11.dtd"><svg t="1586828729986" class="icon" viewBox="0 0 1024 1024" version="1.1" xmlns="http://www.w3.org/2000/svg" p-id="15926" xmlns:xlink="http://www.w3.org/1999/xlink" width="200" height="200"><defs><style type="text/css">html, * {  }
</style></defs><path d="M160 64C107.264 64 64 107.264 64 160v640c0 52.736 43.264 96 96 96h640c52.736 0 96-43.264 96-96v-640c0-52.736-43.264-96-96-96z m0 64h640c17.984 0 32 14.016 32 32v640c0 17.984-14.016 32-32 32h-640a31.616 31.616 0 0 1-32-32v-640c0-17.984 14.016-32 32-32zM448 256v192H256v64h192v192h64V512h192V448H512V256z" fill="" p-id="15927"></path></svg>