<?xml version="1.0" standalone="no"?><!DOCTYPE svg PUBLIC "-//W3C//DTD SVG 1.1//EN" "http://www.w3.org/Graphics/SVG/1.1/DTD/svg11.dtd"><svg t="1586828738290" class="icon" viewBox="0 0 1024 1024" version="1.1" xmlns="http://www.w3.org/2000/svg" p-id="16048" xmlns:xlink="http://www.w3.org/1999/xlink" width="200" height="200"><defs><style type="text/css">html, * {  }
</style></defs><path d="M272 202c-38.66 0-70 31.34-70 70v480c0 38.66 31.34 70 70 70h480c38.66 0 70-31.34 70-70V272c0-38.66-31.34-70-70-70H272z m0-90h480c88.366 0 160 71.634 160 160v480c0 88.366-71.634 160-160 160H272c-88.366 0-160-71.634-160-160V272c0-88.366 71.634-160 160-160z m26 90h90v620h-90V202z m403.23 104c24.854 0 45 20.148 45 45s-20.146 45-45 45h-198.46c-24.854 0-45-20.148-45-45s20.146-45 45-45h198.46z m0 160c24.854 0 45 20.148 45 45s-20.146 45-45 45h-198.46c-24.854 0-45-20.148-45-45s20.146-45 45-45h198.46z m0 161c24.854 0 45 20.148 45 45s-20.146 45-45 45h-198.46c-24.854 0-45-20.148-45-45s20.146-45 45-45h198.46z" p-id="16049"></path></svg>